<svg width="33" height="33" viewBox="0 0 33 33" fill="none" xmlns="http://www.w3.org/2000/svg">
<g clip-path="url(#clip0_15_64)">
<path d="M31.7197 15.6592L17.5987 1.53809C16.6069 0.546399 15.2885 0 13.886 0H3.00003C1.34543 0 0 1.34543 0 3.00003V13.886C0 15.2886 0.546399 16.607 1.53809 17.5987L15.6592 31.7197C16.4729 32.5335 17.5994 33 18.75 33C19.9006 33 21.027 32.5335 21.8408 31.7197L31.7197 21.8408C32.5334 21.0271 32.9999 19.9006 32.9999 18.75C32.9999 17.5994 32.5335 16.4729 31.7197 15.6592ZM30.6592 20.7803L20.7803 30.6592C19.711 31.7285 17.7891 31.7285 16.7198 30.6592L2.59861 16.5381C1.89035 15.8298 1.49998 14.8879 1.49998 13.886V3.00003C1.49998 2.17315 2.17308 1.50005 2.99995 1.50005H13.886C14.888 1.50005 15.8299 1.89042 16.5381 2.59868L30.6592 16.7198C31.1939 17.2544 31.5 17.9942 31.5 18.75C31.5 19.5059 31.1939 20.2456 30.6592 20.7803Z" fill="#5FC400"/>
<path d="M5.99996 3C4.34544 3 2.99994 4.34543 2.99994 6.00003C2.99994 7.65462 4.34544 8.99998 5.99996 8.99998C7.65448 8.99998 8.99998 7.65455 8.99998 5.99995C8.99998 4.34536 7.65456 3 5.99996 3ZM5.99996 7.5C5.17309 7.5 4.49999 6.8269 4.49999 5.99995C4.49999 5.17308 5.17309 4.49998 5.99996 4.49998C6.82684 4.49998 7.49994 5.17308 7.49994 5.99995C7.50001 6.8269 6.82691 7.5 5.99996 7.5Z" fill="#5FC400"/>
<path d="M12.9506 15.0723C13.8281 14.1949 13.8281 12.7674 12.9506 11.8899C12.6584 11.5977 12.6584 11.1216 12.9506 10.8301L13.4824 10.2991C13.763 10.0157 14.2573 10.0157 14.5422 10.2991C14.6836 10.4412 14.762 10.6295 14.762 10.8294C14.762 11.0301 14.6843 11.2176 14.5422 11.3589C14.2492 11.6519 14.2492 12.1266 14.5415 12.4202C14.8345 12.7132 15.3098 12.7125 15.6028 12.4209C16.0277 11.9961 16.262 11.4307 16.262 10.8294C16.262 10.2288 16.0277 9.66343 15.6028 9.2386C14.7532 8.38824 13.2693 8.39042 12.4212 9.2379L11.8894 9.7689C11.0135 10.6471 11.0135 12.0738 11.8901 12.9505C12.1823 13.2435 12.1823 13.7188 11.8901 14.0118L11.3591 14.5421C11.0772 14.8263 10.5842 14.8249 10.2993 14.5421C10.158 14.4 10.0796 14.2118 10.0796 14.0118C10.0796 13.8112 10.1572 13.6229 10.2993 13.4823C10.5923 13.1893 10.5923 12.7147 10.3 12.421C10.007 12.128 9.5317 12.1288 9.23871 12.4203C8.81388 12.8451 8.57953 13.4105 8.57953 14.0118C8.57953 14.6125 8.81388 15.1778 9.23871 15.6027C9.66354 16.0275 10.2289 16.2618 10.8295 16.2618C11.4308 16.2618 11.9963 16.0275 12.4203 15.6027L12.9506 15.0723Z" fill="#5FC400"/>
<path d="M17.7239 17.7236C18.0169 17.4306 18.0169 16.956 17.7239 16.6631L16.6634 15.6026L18.2542 14.0117L19.8457 15.6026C20.1387 15.8956 20.6133 15.8956 20.9063 15.6026C21.1993 15.3096 21.1993 14.835 20.9063 14.542L18.7844 12.4209C18.4914 12.1279 18.0168 12.1279 17.7239 12.4209L12.4212 17.7237C12.1282 18.0167 12.1282 18.4913 12.4212 18.7842L14.5423 20.906C14.6887 21.0525 14.8807 21.1258 15.0726 21.1258C15.2645 21.1258 15.4563 21.0525 15.6029 20.906C15.8959 20.613 15.8959 20.1384 15.6029 19.8455L14.012 18.254L15.6029 16.6632L16.6634 17.7237C16.8099 17.8701 17.0018 17.9434 17.1937 17.9434C17.3855 17.9433 17.5775 17.8701 17.7239 17.7236Z" fill="#5FC400"/>
<path d="M20.9063 17.7234C20.9063 17.7241 20.9063 17.7241 20.9063 17.7241L17.7231 20.9064C16.8479 21.7839 16.8479 23.2106 17.7238 24.0881C18.1626 24.5268 18.7389 24.7465 19.3147 24.7465C19.8911 24.7465 20.4675 24.5268 20.9062 24.0881L24.0878 20.9064C24.9653 20.029 24.9653 18.6015 24.0878 17.7233C23.2105 16.8474 21.7837 16.8474 20.9063 17.7234ZM23.0274 19.846L19.8457 23.0276C19.5535 23.3198 19.0774 23.3213 18.7852 23.0276C18.493 22.7354 18.493 22.2593 18.7845 21.9671L21.9668 18.7854C22.2584 18.4925 22.7359 18.4932 23.0274 18.7847C23.3196 19.0777 23.3196 19.553 23.0274 19.846Z" fill="#5FC400"/>
</g>
<defs>
<clipPath id="clip0_15_64">
<rect width="33" height="33" fill="white"/>
</clipPath>
</defs>
</svg>
