<svg width="33" height="33" viewBox="0 0 33 33" fill="none" xmlns="http://www.w3.org/2000/svg">
<g clip-path="url(#clip0_15_78)">
<path d="M15.8125 16.5C15.433 16.5 15.125 16.192 15.125 15.8125V8.9375C15.125 8.558 15.433 8.25 15.8125 8.25H17.875C19.3916 8.25 20.625 9.48337 20.625 11C20.625 12.5166 19.3916 13.75 17.875 13.75H16.5V15.8125C16.5 16.192 16.192 16.5 15.8125 16.5ZM16.5 12.375H17.875C18.634 12.375 19.25 11.7576 19.25 11C19.25 10.2424 18.634 9.625 17.875 9.625H16.5V12.375Z" fill="#00329B"/>
<path d="M19.9375 16.5009C19.7615 16.5009 19.5855 16.4335 19.4508 16.3002L16.7008 13.5502C16.4326 13.282 16.4326 12.8462 16.7008 12.578C16.9689 12.3099 17.4048 12.3099 17.6729 12.578L20.4229 15.328C20.691 15.5962 20.691 16.032 20.4229 16.3002C20.2895 16.4335 20.1135 16.5009 19.9375 16.5009Z" fill="#00329B"/>
<path d="M9.62501 16.4996C9.32114 16.4996 9.05439 16.3002 8.96639 16.0101L6.90389 9.1351C6.79388 8.7721 7.00014 8.38847 7.36451 8.27847C7.72751 8.17122 8.11114 8.3761 8.22114 8.7391L9.62501 13.4196L11.0289 8.74047C11.1375 8.3761 11.5239 8.1726 11.8841 8.27985C12.2485 8.38985 12.4548 8.7721 12.3448 9.13648L10.2823 16.0115C10.1956 16.3002 9.92889 16.4996 9.62501 16.4996Z" fill="#00329B"/>
<path d="M25.4375 12.375C24.3004 12.375 23.375 11.4496 23.375 10.3125C23.375 9.17537 24.3004 8.25 25.4375 8.25C26.5746 8.25 27.5 9.17537 27.5 10.3125C27.5 11.4496 26.5746 12.375 25.4375 12.375ZM25.4375 9.625C25.0594 9.625 24.75 9.933 24.75 10.3125C24.75 10.692 25.0594 11 25.4375 11C25.8156 11 26.125 10.692 26.125 10.3125C26.125 9.933 25.8156 9.625 25.4375 9.625Z" fill="#00329B"/>
<path d="M29.5625 23.375H20.8587C20.5631 23.375 20.3005 23.1853 20.2056 22.9048L19.602 21.0898C19.5071 20.8161 19.2417 20.625 18.9475 20.625H14.0525C13.7583 20.625 13.4943 20.8161 13.3939 21.1008L12.793 22.9061C12.6995 23.1853 12.4369 23.375 12.1412 23.375H3.4375C1.54138 23.375 0 21.8323 0 19.9375V7.5625C0 5.66775 1.54138 4.125 3.4375 4.125H29.5625C31.4586 4.125 33 5.66775 33 7.5625V19.9375C33 21.8323 31.4586 23.375 29.5625 23.375ZM21.3538 22H29.5625C30.6996 22 31.625 21.0746 31.625 19.9375V7.5625C31.625 6.42538 30.6996 5.5 29.5625 5.5H3.4375C2.30037 5.5 1.375 6.42538 1.375 7.5625V19.9375C1.375 21.0746 2.30037 22 3.4375 22H11.6463L12.0931 20.6553C12.3901 19.811 13.1753 19.25 14.0525 19.25H18.9489C19.8261 19.25 20.6112 19.811 20.9041 20.6456L21.3538 22Z" fill="#00329B"/>
<path d="M28.1875 5.5C27.808 5.5 27.5 5.192 27.5 4.8125V3.4375C27.5 2.30037 26.5746 1.375 25.4375 1.375H7.5625C6.42537 1.375 5.5 2.30037 5.5 3.4375V4.8125C5.5 5.192 5.192 5.5 4.8125 5.5C4.433 5.5 4.125 5.192 4.125 4.8125V3.4375C4.125 1.54275 5.66637 0 7.5625 0H25.4375C27.3336 0 28.875 1.54275 28.875 3.4375V4.8125C28.875 5.192 28.567 5.5 28.1875 5.5Z" fill="#00329B"/>
<path d="M15.125 32.9995C14.9174 32.9995 14.7097 32.9046 14.575 32.7245C14.3481 32.4206 14.41 31.9902 14.7139 31.762L16.731 30.2495L14.7125 28.737C14.4086 28.5087 14.3467 28.0784 14.5736 27.7745C14.8032 27.4692 15.2336 27.4115 15.5361 27.637L18.2861 29.6995C18.4594 29.8287 18.5611 30.0336 18.5611 30.2495C18.5611 30.4654 18.4594 30.6702 18.2861 30.7995L15.5361 32.862C15.4137 32.9541 15.268 32.9995 15.125 32.9995Z" fill="#00329B"/>
<path d="M16.5 30.9375C15.0906 30.9375 13.6537 30.8852 12.2306 30.7848C6.31812 30.3586 0 28.9107 0 26.125C0 25.8348 0.075625 25.5365 0.224125 25.2395C0.394625 24.8985 0.809875 24.7623 1.14812 24.9328C1.48637 25.1033 1.62387 25.5158 1.45475 25.8555C1.4025 25.96 1.375 26.0507 1.375 26.125C1.375 27.1328 4.85512 28.875 12.3282 29.414C13.7294 29.513 15.1209 29.6106 16.5289 29.5625C16.8534 29.5625 17.1655 29.5625 17.4762 29.5501C17.8736 29.5336 18.1761 29.8292 18.1926 30.2087C18.2077 30.5882 17.9121 30.9086 17.534 30.9237C17.193 30.9375 16.8534 30.9375 16.5 30.9375Z" fill="#00329B"/>
<path d="M21.2974 30.7318C20.944 30.7318 20.6429 30.4596 20.614 30.1007C20.5837 29.7226 20.8642 29.3898 21.2424 29.3582C28.3264 28.7793 31.625 27.0867 31.625 26.1256C31.625 26.0513 31.5975 25.9606 31.5452 25.8561C31.3761 25.5164 31.5136 25.1039 31.8519 24.9334C32.1887 24.7616 32.604 24.8991 32.7759 25.2401C32.9244 25.5371 33 25.8354 33 26.1256C33 29.5122 24.0872 30.5063 21.3551 30.7304C21.3372 30.7318 21.3166 30.7318 21.2974 30.7318Z" fill="#00329B"/>
</g>
<defs>
<clipPath id="clip0_15_78">
<rect width="33" height="33" fill="white"/>
</clipPath>
</defs>
</svg>
