<svg width="58" height="58" viewBox="0 0 58 58" fill="none" xmlns="http://www.w3.org/2000/svg">
<circle cx="29" cy="29" r="29" fill="#B19C28"/>
<g clip-path="url(#clip0_2_2)">
<path d="M29.3981 21.1953C23.6624 21.1953 18.9961 25.8617 18.9961 31.5973C18.9961 37.333 23.6624 41.9993 29.3981 41.9993C35.1337 41.9993 39.8001 37.333 39.8001 31.5973C39.8001 25.8617 35.1338 21.1953 29.3981 21.1953ZM29.3981 40.4759C24.5025 40.4759 20.5195 36.493 20.5195 31.5973C20.5195 26.7017 24.5025 22.7188 29.3981 22.7188C34.2937 22.7188 38.2766 26.7017 38.2766 31.5973C38.2766 36.493 34.2937 40.4759 29.3981 40.4759Z" fill="white"/>
<path d="M33.9408 33.5332C33.6215 33.2593 33.1406 33.2961 32.8667 33.6154C31.9969 34.6294 30.7327 35.211 29.3981 35.211C28.0636 35.211 26.7993 34.6295 25.9296 33.6155C25.6557 33.2962 25.1748 33.2594 24.8555 33.5333C24.5362 33.8072 24.4994 34.2881 24.7733 34.6073C25.9328 35.9591 27.6186 36.7345 29.3981 36.7345C31.1778 36.7345 32.8635 35.9591 34.023 34.6072C34.2969 34.288 34.2601 33.8071 33.9408 33.5332Z" fill="white"/>
<path d="M25.1694 30.3999C25.59 30.3999 25.9311 30.0589 25.9311 29.6382C25.9311 29.394 26.1298 29.1953 26.374 29.1953C26.6182 29.1953 26.8169 29.394 26.8169 29.6382C26.8169 30.0589 27.158 30.3999 27.5786 30.3999C27.9993 30.3999 28.3404 30.0589 28.3404 29.6382C28.3404 28.554 27.4582 27.6719 26.374 27.6719C25.2898 27.6719 24.4077 28.554 24.4077 29.6382C24.4077 30.0589 24.7487 30.3999 25.1694 30.3999Z" fill="white"/>
<path d="M32.4222 27.6719C31.338 27.6719 30.4558 28.554 30.4558 29.6382C30.4558 30.0589 30.7969 30.4 31.2176 30.4C31.6382 30.4 31.9793 30.0589 31.9793 29.6382C31.9793 29.394 32.178 29.1953 32.4222 29.1953C32.6664 29.1953 32.8651 29.394 32.8651 29.6382C32.8651 30.0589 33.2062 30.4 33.6268 30.4C34.0475 30.4 34.3885 30.0589 34.3885 29.6382C34.3885 28.5539 33.5064 27.6719 32.4222 27.6719Z" fill="white"/>
<path d="M35.6737 20.2793H36.7849C37.2056 20.2793 37.5466 19.9383 37.5466 19.5176C37.5466 19.0969 37.2056 18.7559 36.7849 18.7559H35.6737C35.253 18.7559 34.912 19.0969 34.912 19.5176C34.912 19.9383 35.253 20.2793 35.6737 20.2793Z" fill="white"/>
<path d="M38.456 23.0351C38.8767 23.0351 39.2177 22.694 39.2177 22.2734V21.1621C39.2177 20.7414 38.8767 20.4004 38.456 20.4004C38.0353 20.4004 37.6943 20.7414 37.6943 21.1621V22.2734C37.6943 22.6941 38.0353 23.0351 38.456 23.0351Z" fill="white"/>
<path d="M41.2383 18.7559H40.127C39.7064 18.7559 39.3653 19.0969 39.3653 19.5176C39.3653 19.9383 39.7064 20.2793 40.127 20.2793H41.2383C41.659 20.2793 42 19.9383 42 19.5176C42 19.0969 41.659 18.7559 41.2383 18.7559Z" fill="white"/>
<path d="M38.456 18.6347C38.8767 18.6347 39.2177 18.2936 39.2177 17.873V16.7617C39.2177 16.341 38.8767 16 38.456 16C38.0353 16 37.6943 16.341 37.6943 16.7617V17.873C37.6943 18.2936 38.0353 18.6347 38.456 18.6347Z" fill="white"/>
<path d="M17.6489 19.7715H16.7617C16.341 19.7715 16 20.1125 16 20.5332C16 20.9539 16.341 21.2949 16.7617 21.2949H17.6489C18.0695 21.2949 18.4106 20.9539 18.4106 20.5332C18.4106 20.1125 18.0695 19.7715 17.6489 19.7715Z" fill="white"/>
<path d="M19.9986 22.9868V22.0996C19.9986 21.6789 19.6576 21.3379 19.2369 21.3379C18.8162 21.3379 18.4752 21.6789 18.4752 22.0996V22.9868C18.4752 23.4074 18.8162 23.7485 19.2369 23.7485C19.6576 23.7485 19.9986 23.4074 19.9986 22.9868Z" fill="white"/>
<path d="M20.8249 21.2949H21.712C22.1327 21.2949 22.4737 20.9539 22.4737 20.5332C22.4737 20.1125 22.1327 19.7715 21.712 19.7715H20.8249C20.4042 19.7715 20.0632 20.1125 20.0632 20.5332C20.0632 20.9539 20.4042 21.2949 20.8249 21.2949Z" fill="white"/>
<path d="M19.2369 19.727C19.6576 19.727 19.9986 19.3859 19.9986 18.9653V18.0781C19.9986 17.6575 19.6576 17.3164 19.2369 17.3164C18.8162 17.3164 18.4752 17.6575 18.4752 18.0781V18.9653C18.4752 19.3859 18.8162 19.727 19.2369 19.727Z" fill="white"/>
</g>
<defs>
<clipPath id="clip0_2_2">
<rect width="26" height="26" fill="white" transform="translate(16 16)"/>
</clipPath>
</defs>
</svg>
