<svg width="45" height="44" viewBox="0 0 45 44" fill="none" xmlns="http://www.w3.org/2000/svg">
<path d="M36.0211 8.14921C27.7421 0.332288 15.6011 -3.75962 7.88277 4.67389C0.164471 13.1074 -3.61745 30.6287 4.68152 38.4721C12.9805 46.3156 33.2691 45.7173 40.9874 37.2838C48.7057 28.8503 44.32 15.9926 36.0211 8.14921ZM20.7339 18.7229C20.7339 18.7229 20.7118 18.6812 20.7239 18.6455C20.7319 18.62 20.7519 18.5986 20.777 18.5894C22.5291 17.9586 24.4426 18.3571 25.6541 19.6004C27.1665 21.1547 27.5285 24.099 25.6541 26.0038C23.7767 27.9117 20.8803 27.5437 19.3519 26.0038C18.1223 24.7645 17.7402 22.8108 18.3771 21.0273C18.3861 21.0018 18.4072 20.9824 18.4322 20.9732C18.4673 20.962 18.5034 20.9814 18.5085 20.9834C18.5676 21.013 19.9546 22.612 21.128 21.4033C22.4549 20.0356 20.759 18.7729 20.7349 18.7209L20.7339 18.7229ZM24.5068 15.8204C24.1849 15.7317 23.4658 15.5615 22.6073 15.5615C18.6328 15.5615 15.3995 18.8473 15.3995 22.8862C15.3995 24.2733 15.7806 25.5707 16.4415 26.6775L11.0299 32.1768C10.5876 32.506 10.2797 33.1379 10.2797 33.7178C10.2797 34.7013 11.068 35.5023 12.0358 35.5023C12.5904 35.5023 13.1189 35.2302 13.4498 34.7757C13.4549 34.7685 13.4579 34.7614 13.4599 34.7532L18.9367 29.1876C20.0128 29.8368 21.2674 30.2109 22.6073 30.2109C22.6875 30.2109 23.5942 30.2058 24.4827 29.9591C25.7544 29.6055 26.7653 28.8177 27.4182 28.1828C28.39 29.8338 29.6236 31.3401 30.9253 32.7211C31.4749 33.303 32.0446 33.8686 32.6343 34.4139C31.0918 35.8713 29.6005 36.6438 28.6568 37.0463C24.3162 38.9032 19.8794 38.0125 18.6368 37.4122C18.6368 37.4122 16.8627 36.5561 15.4105 36.1597C15.4105 36.1597 15.4075 36.1597 15.4015 36.1566C15.3965 36.1536 15.3915 36.1536 15.3844 36.1525C15.3794 36.1505 15.3744 36.1505 15.3674 36.1505C15.3624 36.1505 15.3574 36.1505 15.3513 36.1525C15.3453 36.1525 15.3413 36.1556 15.3343 36.1576C15.3303 36.1597 15.3253 36.1617 15.3203 36.1658C15.3162 36.1689 15.3112 36.1719 15.3072 36.176C15.3042 36.179 15.3022 36.179 15.3002 36.1811C14.4899 37.1972 13.3295 37.7567 12.0348 37.7567C9.67394 37.7567 7.75339 35.805 7.75339 33.4059C7.75339 32.0372 8.33608 30.8285 9.39313 30.004C9.39614 30.0009 9.39815 29.9979 9.40115 29.9948C9.40416 29.9907 9.40918 29.9856 9.41118 29.9816C9.41419 29.9775 9.4172 29.9714 9.41921 29.9663C9.42121 29.9612 9.42322 29.9561 9.42422 29.95C9.42422 29.9449 9.42422 29.9398 9.42422 29.9326C9.42422 29.9275 9.42422 29.9224 9.42422 29.9153C9.42422 29.9102 9.42121 29.9051 9.41921 29.898C9.4172 29.8949 9.4172 29.8909 9.4162 29.8878C7.8587 27.1208 7.37831 23.7647 8.02819 20.1814C8.16358 19.4353 9.51548 12.8017 15.2651 9.55666C18.3239 7.83021 21.5352 7.6753 22.4468 7.66919C23.5641 7.659 24.6943 7.82206 24.7054 7.8241C25.9279 8.00041 27.0301 8.29189 28.0751 8.7179C28.397 8.84835 28.6829 8.97982 28.9306 9.10212C29.2274 9.25601 29.5263 9.41704 29.8282 9.58826C30.9334 10.212 31.9413 10.8775 32.8599 11.5603C31.8199 12.5418 30.8271 13.5783 29.9305 14.6902C29.2244 15.5666 28.5976 16.4869 28.045 17.4694C27.9828 17.5795 27.9227 17.6916 27.8655 17.8047C27.1715 17.1137 26.0593 16.2454 24.5058 15.8173L24.5068 15.8204ZM34.0002 12.5458C34.0173 12.5295 34.0343 12.5143 34.0514 12.4979C34.0544 12.501 34.0594 12.5041 34.0624 12.5071C34.0413 12.5194 34.0203 12.5326 33.9992 12.5458H34.0002Z" fill="#F18005"/>
</svg>
